#!OML:ASF E:\acrobat2\Project_11_07_03\Capture day 1\Session 1\Acrobat.ASF
:FULLY-SPECIFIED
:DEGREES
421
root 13.2048 23.7028 10.5891 -83.793 0.597065 155.711
lowerback 9.32615 -5.20896 -4.80973
upperback 0.1775 -7.72689 -1.47642
thorax -4.59689 -3.80455 2.12832
lowerneck -9.72863 -7.65967 -20.8841
upperneck -5.85459 -8.2874 19.0896
head 1.66526 -3.84587 8.95181
rclavicle 2.8625e-014 -8.94531e-015
rhumerus 43.2812 5.67993 -13.1023
rradius 75.437
rwrist 7.77362
rhand -24.8565 -34.5608
rfingers 7.12502
rthumb 1.65015 -64.5342
lclavicle 2.8625e-014 -8.94531e-015
lhumerus -10.3823 23.63 1.01488
lradius 60.2511
lwrist 18.6288
lhand -19.7021 -21.1689
lfingers 7.12502
lthumb 6.62743 8.70744
rfemur -19.3961 -14.1524 25.7217
rtibia 30.262
rfoot 35.814 -10.5201
rtoes 37.1328
lfemur -22.9546 -6.22773 9.0575
ltibia 44.1661
lfoot 16.2716 2.08808
ltoes 1.33987
422
root 13.1157 23.1854 10.6358 -82.9679 0.83738 156.359
lowerback 7.89732 -5.16435 -4.41344
upperback -0.412969 -7.50333 -1.10105
thorax -4.42699 -3.68313 2.15622
lowerneck -9.97585 -7.68808 -20.9509
upperneck -5.53289 -8.29867 19.2623
head 1.81509 -3.83455 9.0084
rclavicle 5.40694e-014 4.96962e-015
rhumerus 43.8735 4.12117 -13.5602
rradius 73.2892
rwrist 8.63926
rhand -24.8351 -35.0301
rfingers 7.12502
rthumb 1.67081 -65.0033
lclavicle 5.40694e-014 4.96962e-015
lhumerus -9.25875 24.1462 -1.08405
lradius 61.0464
lwrist 17.4669
lhand -20.137 -21.5209
lfingers 7.12502
lthumb 6.20758 8.36818
rfemur -17.661 -13.4497 24.9019
rtibia 27.4004
rfoot 34.9408 -10.1423
rtoes 36.9846
lfemur -21.2744 -7.18739 8.41109
ltibia 42.5154
lfoot 14.6169 2.1648
ltoes 0.095431
423
root 13.0364 22.6572 10.6806 -82.1485 1.07358 156.922
lowerback 6.47649 -5.17863 -4.04567
upperback -1.02179 -7.38433 -0.72701
thorax -4.26706 -3.61618 2.21375
lowerneck -10.107 -7.67531 -21.317
upperneck -5.26117 -8.24314 19.7804
head 1.95531 -3.78756 9.24607
rclavicle -1.90833e-014 -5.56597e-015
rhumerus 44.6977 2.76833 -14.2677
rradius 71.066
rwrist 9.49743
rhand -24.7133 -35.5022
rfingers 7.12502
rthumb 1.78845 -65.4744
lclavicle -1.90833e-014 -5.56597e-015
lhumerus -8.04976 24.6586 -3.12861
lradius 61.7453
lwrist 16.3995
lhand -20.528 -21.9032
lfingers 7.12502
lthumb 5.83006 7.99662
rfemur -16.1403 -12.0749 24.0281
rtibia 25.0719
rfoot 32.962 -9.95797
rtoes 36.7473
lfemur -19.7298 -8.12021 7.75171
ltibia 40.9996
lfoot 12.9711 2.37109
ltoes -1.31503
424
root 12.9651 22.1207 10.7227 -81.3544 1.28982 157.389
lowerback 5.14627 -5.22249 -3.77498
upperback -1.6315 -7.32935 -0.276128
thorax -4.13052 -3.57914 2.41836
lowerneck -10.2615 -7.66005 -21.9645
upperneck -4.92918 -8.15967 20.5574
head 2.1402 -3.7183 9.62713
rclavicle 8.26944e-014 -5.96354e-015
rhumerus 45.7348 1.55343 -15.0678
rradius 68.8349
rwrist 10.3392
rhand -24.4643 -35.9751
rfingers 7.12502
rthumb 2.02897 -65.9452
lclavicle 8.26944e-014 -5.96354e-015
lhumerus -6.71269 25.2191 -4.94071
lradius 62.4133
lwrist 15.7558
lhand -20.7284 -22.2581
lfingers 7.12502
lthumb 5.6366 7.64695
rfemur -14.8541 -10.0324 23.1423
rtibia 23.3368
rfoot 29.9486 -10.0886
rtoes 36.2957
lfemur -18.3193 -9.03439 7.10749
ltibia 39.6384
lfoot 11.3996 2.81832
ltoes -2.53759
425
root 12.8994 21.5776 10.7625 -80.5875 1.44402 157.759
lowerback 3.90354 -5.28406 -3.51681
upperback -2.22069 -7.3128 0.234337
thorax -4.00898 -3.56191 2.70133
lowerneck -10.4663 -7.66213 -22.6819
upperneck -4.58225 -8.08964 21.4023
head 2.34758 -3.65258 10.0485
rclavicle 2.54444e-014 -8.24956e-015
rhumerus 46.9126 0.43495 -15.9606
rradius 66.6468
rwrist 11.1639
rhand -24.1197 -36.404
rfingers 7.12502
rthumb 2.36177 -66.3707
lclavicle 2.54444e-014 -8.24956e-015
lhumerus -5.18598 25.8197 -6.4936
lradius 63.0891
lwrist 15.6874
lhand -20.702 -22.5475
lfingers 7.12502
lthumb 5.66212 7.35685
rfemur -13.7972 -7.28865 22.3234
rtibia 22.1909
rfoot 26.0047 -10.819
rtoes 35.6126
lfemur -17.0517 -9.91701 6.53431
ltibia 38.4534
lfoot 9.95887 3.52821
ltoes -3.31292
426
root 12.8356 21.0298 10.8002 -79.8608 1.51401 158.036
lowerback 2.76672 -5.36291 -3.18282
upperback -2.7862 -7.3295 0.787205
thorax -3.92361 -3.56395 2.99803
lowerneck -10.7802 -7.70064 -23.4647
upperneck -4.15593 -8.05312 22.3104
head 2.61031 -3.59635 10.5059
rclavicle -3.02153e-014 -2.0276e-014
rhumerus 48.1954 -0.575503 -16.9266
rradius 64.5529
rwrist 11.9393
rhand -23.784 -36.769
rfingers 7.12502
rthumb 2.68594 -66.7319
lclavicle -3.02153e-014 -2.0276e-014
lhumerus -3.50702 26.4277 -7.7968
lradius 63.8031
lwrist 16.1269
lhand -20.4959 -22.8024
lfingers 7.12502
lthumb 5.86102 7.09652
rfemur -12.9199 -3.9408 21.6306
rtibia 21.5616
rfoot 21.2698 -12.4046
rtoes 34.9979
lfemur -15.9269 -10.7774 6.05157
ltibia 37.4776
lfoot 8.65334 4.43518
ltoes -3.54761
427
root 12.7699 20.4787 10.8365 -79.181 1.5081 158.224
lowerback 1.74232 -5.45479 -2.70915
upperback -3.33111 -7.37381 1.35147
thorax -3.89403 -3.58496 3.24259
lowerneck -11.1767 -7.78028 -24.2146
upperneck -3.71792 -8.06476 23.1835
head 2.89834 -3.56135 10.9475
rclavicle 1.03368e-014 7.85199e-015
rhumerus 49.5164 -1.43389 -17.9348
rradius 62.6095
rwrist 12.6233
rhand -23.5793 -37.0771
rfingers 7.12502
rthumb 2.88364 -67.0374
lclavicle 1.03368e-014 7.85199e-015
lhumerus -1.71884 27.014 -8.84928
lradius 64.5698
lwrist 16.8405
lhand -20.2097 -23.0878
lfingers 7.12502
lthumb 6.13737 6.8033
rfemur -12.1508 -0.250625 21.0942
rtibia 21.3157
rfoot 15.9085 -14.8712
rtoes 34.9013
lfemur -14.9421 -11.6298 5.63911
ltibia 36.7369
lfoot 7.45187 5.44994
ltoes -3.13071
428
root 12.7005 19.9258 10.8728 -78.5836 1.45997 158.326
lowerback 0.864775 -5.55426 -2.09333
upperback -3.84475 -7.44141 1.89433
thorax -3.93422 -3.62396 3.40318
lowerneck -11.4947 -7.86984 -24.7036
upperneck -3.57269 -8.10476 23.7463
head 3.06398 -3.55758 11.2337
rclavicle -1.59028e-015 -4.12478e-015
rhumerus 50.7669 -2.08669 -18.9947
rradius 60.9019
rwrist 13.2203
rhand -23.5964 -37.326
rfingers 7.12502
rthumb 2.8671 -67.2865
lclavicle -1.59028e-015 -4.12478e-015
lhumerus 0.138899 27.5859 -9.60563
lradius 65.391
lwrist 17.4668
lhand -19.9935 -23.4583
lfingers 7.12502
lthumb 6.34607 6.42665
rfemur -11.3666 3.34734 20.7205
rtibia 21.2928
rfoot 10.0569 -17.8801
rtoes 35.85
lfemur -14.0611 -12.4682 5.25215
ltibia 36.2398
lfoot 6.31853 6.46443
ltoes -2.05773
429
root 12.6282 19.3708 10.9091 -78.0749 1.44599 158.364
lowerback 0.126077 -5.65608 -1.40912
upperback -4.3208 -7.52795 2.38384
thorax -4.02945 -3.67833 3.48604
lowerneck -11.7472 -7.97364 -24.9625
upperneck -3.69434 -8.17361 24.0358
head 3.12007 -3.58365 11.3757
rclavicle -2.8625e-014 -3.27995e-015
rhumerus 51.8957 -2.51622 -20.0113
rradius 59.4661
rwrist 13.6479
rhand -23.8441 -37.4939
rfingers 7.12502
rthumb 2.62789 -67.4575
lclavicle -2.8625e-014 -3.27995e-015
lhumerus 2.02538 28.0779 -10.1142
lradius 66.2547
lwrist 17.8774
lhand -19.8846 -23.9215
lfingers 7.12502
lthumb 6.45126 5.96023
rfemur -10.4813 6.31053 20.4529
rtibia 21.3531
rfoot 3.86453 -20.7219
rtoes 38.1394
lfemur -13.2573 -13.2654 4.80525
ltibia 35.9654
lfoot 5.21473 7.38151
ltoes -0.469363
430
root 12.554 18.8129 10.9435 -77.6546 1.5164 158.367
lowerback -0.487852 -5.75515 -0.716411
upperback -4.75684 -7.62575 2.79925
thorax -4.16577 -3.74307 3.50087
lowerneck -11.9405 -8.09526 -25.0357
upperneck -4.06523 -8.27535 24.1249
head 3.08017 -3.64076 11.4057
rclavicle 1.12115e-013 -1.24737e-014
rhumerus 52.8341 -2.68309 -20.931
rradius 58.3212
rwrist 13.9073
rhand -24.28 -37.5439
rfingers 7.12502
rthumb 2.20693 -67.5123
lclavicle 1.12115e-013 -1.24737e-014
lhumerus 3.90555 28.4478 -10.3815
lradius 67.1786
lwrist 17.9678
lhand -19.896 -24.4618
lfingers 7.12502
lthumb 6.44019 5.42032
rfemur -9.44921 8.15258 20.2156
rtibia 21.4012
rfoot -2.2253 -22.5986
rtoes 41.3417
lfemur -12.4995 -13.9739 4.24225
ltibia 35.8699
lfoot 4.14886 8.135
ltoes 1.27594
431
root 12.482 18.2492 10.9747 -77.2802 1.6771 158.359
lowerback -1.04943 -5.84844 -0.0874084
upperback -5.16107 -7.72938 3.15112
thorax -4.30089 -3.81351 3.48973
lowerneck -12.0711 -8.68065 -24.8588
upperneck -4.49153 -8.46963 24.0849
head 3.04438 -3.25554 11.3476
rclavicle 1.4392e-013 4.30617e-014
rhumerus 53.571 -2.56914 -21.6543
rradius 57.4214
rwrist 14.0003
rhand -24.8026 -37.465
rfingers 7.12502
rthumb 1.70219 -67.438
lclavicle 1.4392e-013 4.30617e-014
lhumerus 5.75778 28.6214 -10.4732
lradius 68.1813
lwrist 17.8551
lhand -19.9708 -25.0317
lfingers 7.12502
lthumb 6.36799 4.85253
rfemur -8.29793 8.90009 19.9525
rtibia 21.3999
rfoot -7.73412 -23.2372
rtoes 44.6755
lfemur -11.7885 -14.4692 3.59162
ltibia 35.889
lfoot 3.2153 8.65619
ltoes 2.67813
432
root 12.4134 17.6788 11.0006 -76.9337 1.92856 158.36
lowerback -1.57884 -5.93331 0.457052
upperback -5.54403 -7.83358 3.44662
thorax -4.43084 -3.88564 3.46939
lowerneck -12.0906 -8.88915 -24.6351
upperneck -5.29156 -8.63083 23.927
head 2.83874 -3.30638 11.2297
rclavicle -1.25632e-013 -2.3059e-014
rhumerus 54.1148 -2.16447 -22.0875
rradius 56.6931
rwrist 13.9753
rhand -25.2479 -37.26
rfingers 7.12502
rthumb 1.27218 -67.2359
lclavicle -1.25632e-013 -2.3059e-014
lhumerus 7.54205 28.5264 -10.4681
lradius 69.3087
lwrist 17.7759
lhand -20.0216 -25.5617
lfingers 7.12502
lthumb 6.31896 4.32402
rfemur -7.07013 8.86079 19.5966
rtibia 21.3547
rfoot -12.1762 -22.8466
rtoes 47.361
lfemur -11.1071 -14.6962 2.87157
ltibia 35.9574
lfoot 2.47846 8.93951
ltoes 3.54602
433
root 12.3481 17.1011 11.0211 -76.639 2.22349 158.38
lowerback -2.06526 -6.00599 0.963203
upperback -5.9036 -7.9293 3.6983
thorax -4.5641 -3.95536 3.42872
lowerneck -11.9813 -9.10412 -24.3064
upperneck -6.28252 -8.8109 23.6768
head 2.54939 -3.37028 11.0638
rclavicle 8.8658e-014 -2.67614e-014
rhumerus 54.5195 -1.49242 -22.1256
rradius 56.0164
rwrist 13.8478
rhand -25.4446 -36.969
rfingers 7.12502
rthumb 1.08213 -66.946
lclavicle 8.8658e-014 -2.67614e-014
lhumerus 9.21612 28.111 -10.4298
lradius 70.6075
lwrist 17.9374
lhand -19.9735 -26.0193
lfingers 7.12502
lthumb 6.36538 3.86505
rfemur -5.78216 8.48379 19.1624
rtibia 21.3073
rfoot -15.3082 -21.9413
rtoes 48.912
lfemur -10.3892 -14.7343 2.13634
ltibia 36.0122
lfoot 1.85616 9.068
ltoes 4.62371
434
root 12.2859 16.5145 11.0347 -76.4018 2.52366 158.405
lowerback -2.5222 -6.06919 1.47675
upperback -6.24401 -8.01817 3.91561
thorax -4.7022 -4.02484 3.35167
lowerneck -11.6935 -9.31392 -23.8946
upperneck -7.48184 -9.00208 23.3615
head 2.1645 -3.44517 10.8706
rclavicle -6.36111e-015 -3.16316e-014
rhumerus 54.8275 -0.548903 -21.8996
rradius 55.2998
rwrist 13.8755
rhand -26.7242 -37.2601
rfingers 7.12502
rthumb -0.153686 -67.2398
lclavicle -6.36111e-015 -3.16316e-014
lhumerus 10.7486 27.3463 -10.4076
lradius 72.099
lwrist 18.4242
lhand -19.8116 -26.4309
lfingers 7.12502
lthumb 6.52174 3.44865
rfemur -4.4654 8.11565 18.689
rtibia 21.3018
rfoot -17.2044 -20.9491
rtoes 49.1668
lfemur -9.60864 -14.5949 1.44058
ltibia 36.0106
lfoot 1.37437 9.05883
ltoes 5.93789
